<svg width="972" height="262" viewBox="0 0 972 262" fill="none" xmlns="http://www.w3.org/2000/svg">
<path d="M250.979 158H228.558V45.9688H306.995V68.3906H250.979V90.8125H284.573V113.234H250.979V158ZM387.308 115.422C387.308 121.672 386.188 127.505 383.948 132.922C381.709 138.286 378.662 142.948 374.808 146.906C370.953 150.812 366.422 153.911 361.214 156.203C356.058 158.443 350.511 159.562 344.573 159.562C338.688 159.562 333.141 158.443 327.933 156.203C322.776 153.911 318.245 150.812 314.339 146.906C310.485 142.948 307.438 138.286 305.198 132.922C302.959 127.505 301.839 121.672 301.839 115.422C301.839 109.068 302.959 103.182 305.198 97.7656C307.438 92.349 310.485 87.6875 314.339 83.7812C318.245 79.8229 322.776 76.724 327.933 74.4844C333.141 72.2448 338.688 71.125 344.573 71.125C350.511 71.125 356.058 72.1927 361.214 74.3281C366.422 76.4115 370.953 79.4062 374.808 83.3125C378.662 87.1667 381.709 91.8281 383.948 97.2969C386.188 102.714 387.308 108.755 387.308 115.422ZM365.823 115.422C365.823 111.984 365.25 108.885 364.104 106.125C363.011 103.312 361.5 100.917 359.573 98.9375C357.646 96.9062 355.38 95.3698 352.776 94.3281C350.224 93.2344 347.49 92.6875 344.573 92.6875C341.656 92.6875 338.896 93.2344 336.292 94.3281C333.74 95.3698 331.5 96.9062 329.573 98.9375C327.698 100.917 326.214 103.312 325.12 106.125C324.026 108.885 323.479 111.984 323.479 115.422C323.479 118.651 324.026 121.646 325.12 124.406C326.214 127.167 327.698 129.562 329.573 131.594C331.5 133.625 333.74 135.24 336.292 136.438C338.896 137.583 341.656 138.156 344.573 138.156C347.49 138.156 350.224 137.609 352.776 136.516C355.38 135.422 357.646 133.885 359.573 131.906C361.5 129.927 363.011 127.531 364.104 124.719C365.25 121.906 365.823 118.807 365.823 115.422ZM479.964 115.422C479.964 121.672 478.844 127.505 476.604 132.922C474.365 138.286 471.318 142.948 467.464 146.906C463.61 150.812 459.078 153.911 453.87 156.203C448.714 158.443 443.167 159.562 437.229 159.562C431.344 159.562 425.797 158.443 420.589 156.203C415.433 153.911 410.901 150.812 406.995 146.906C403.141 142.948 400.094 138.286 397.854 132.922C395.615 127.505 394.495 121.672 394.495 115.422C394.495 109.068 395.615 103.182 397.854 97.7656C400.094 92.349 403.141 87.6875 406.995 83.7812C410.901 79.8229 415.433 76.724 420.589 74.4844C425.797 72.2448 431.344 71.125 437.229 71.125C443.167 71.125 448.714 72.1927 453.87 74.3281C459.078 76.4115 463.61 79.4062 467.464 83.3125C471.318 87.1667 474.365 91.8281 476.604 97.2969C478.844 102.714 479.964 108.755 479.964 115.422ZM458.479 115.422C458.479 111.984 457.906 108.885 456.761 106.125C455.667 103.312 454.156 100.917 452.229 98.9375C450.302 96.9062 448.037 95.3698 445.433 94.3281C442.88 93.2344 440.146 92.6875 437.229 92.6875C434.313 92.6875 431.552 93.2344 428.948 94.3281C426.396 95.3698 424.156 96.9062 422.229 98.9375C420.354 100.917 418.87 103.312 417.776 106.125C416.683 108.885 416.136 111.984 416.136 115.422C416.136 118.651 416.683 121.646 417.776 124.406C418.87 127.167 420.354 129.562 422.229 131.594C424.156 133.625 426.396 135.24 428.948 136.438C431.552 137.583 434.313 138.156 437.229 138.156C440.146 138.156 442.88 137.609 445.433 136.516C448.037 135.422 450.302 133.885 452.229 131.906C454.156 129.927 455.667 127.531 456.761 124.719C457.906 121.906 458.479 118.807 458.479 115.422ZM572.62 158H567.464L559.183 146.516C557.151 148.339 554.99 150.057 552.698 151.672C550.459 153.234 548.089 154.615 545.589 155.812C543.089 156.958 540.511 157.87 537.854 158.547C535.25 159.224 532.594 159.562 529.886 159.562C524 159.562 518.453 158.469 513.245 156.281C508.089 154.042 503.558 150.969 499.651 147.062C495.797 143.104 492.75 138.443 490.511 133.078C488.271 127.661 487.151 121.776 487.151 115.422C487.151 109.12 488.271 103.26 490.511 97.8438C492.75 92.4271 495.797 87.7396 499.651 83.7812C503.558 79.8229 508.089 76.724 513.245 74.4844C518.453 72.2448 524 71.125 529.886 71.125C531.761 71.125 533.688 71.2812 535.667 71.5938C537.698 71.9062 539.651 72.4271 541.526 73.1562C543.453 73.8333 545.25 74.7448 546.917 75.8906C548.584 77.0365 549.99 78.4427 551.136 80.1094V41.0469H572.62V158ZM551.136 115.422C551.136 112.505 550.563 109.693 549.417 106.984C548.323 104.224 546.813 101.802 544.886 99.7188C542.959 97.5833 540.693 95.8906 538.089 94.6406C535.537 93.3385 532.802 92.6875 529.886 92.6875C526.969 92.6875 524.209 93.2083 521.604 94.25C519.052 95.2917 516.813 96.8021 514.886 98.7812C513.011 100.708 511.526 103.078 510.433 105.891C509.339 108.703 508.792 111.88 508.792 115.422C508.792 118.495 509.339 121.411 510.433 124.172C511.526 126.932 513.011 129.354 514.886 131.438C516.813 133.521 519.052 135.161 521.604 136.359C524.209 137.557 526.969 138.156 529.886 138.156C532.802 138.156 535.537 137.531 538.089 136.281C540.693 134.979 542.959 133.286 544.886 131.203C546.813 129.068 548.323 126.646 549.417 123.938C550.563 121.177 551.136 118.339 551.136 115.422ZM702.386 158H680.042V78C680.042 76.4375 679.729 74.9792 679.104 73.625C678.531 72.2708 677.724 71.099 676.683 70.1094C675.693 69.0677 674.521 68.2604 673.167 67.6875C671.813 67.1146 670.354 66.8281 668.792 66.8281C667.229 66.8281 665.771 67.1146 664.417 67.6875C663.063 68.2604 661.865 69.0677 660.823 70.1094C659.834 71.099 659.052 72.2708 658.479 73.625C657.906 74.9792 657.62 76.4375 657.62 78V158H635.198V78C635.198 76.4375 634.912 74.9792 634.339 73.625C633.766 72.2708 632.959 71.099 631.917 70.1094C630.927 69.0677 629.755 68.2604 628.401 67.6875C627.047 67.1146 625.589 66.8281 624.026 66.8281C622.464 66.8281 621.005 67.1146 619.651 67.6875C618.297 68.2604 617.099 69.0677 616.058 70.1094C615.068 71.099 614.287 72.2708 613.714 73.625C613.141 74.9792 612.854 76.4375 612.854 78V158H590.433V78C590.433 73.3646 591.292 69.0156 593.011 64.9531C594.781 60.8385 597.177 57.2708 600.198 54.25C603.271 51.1771 606.839 48.7812 610.901 47.0625C615.016 45.2917 619.391 44.4062 624.026 44.4062C628.193 44.4062 632.203 45.1615 636.058 46.6719C639.912 48.1302 643.375 50.2656 646.448 53.0781C649.521 50.2656 652.959 48.1302 656.761 46.6719C660.615 45.1615 664.625 44.4062 668.792 44.4062C673.427 44.4062 677.776 45.2917 681.839 47.0625C685.953 48.7812 689.521 51.1771 692.542 54.25C695.615 57.2708 698.011 60.8385 699.729 64.9531C701.5 69.0156 702.386 73.3646 702.386 78V158ZM800.276 158H795.12L786.839 146.516C784.808 148.339 782.646 150.057 780.354 151.672C778.115 153.234 775.745 154.615 773.245 155.812C770.745 156.958 768.167 157.87 765.511 158.547C762.906 159.224 760.25 159.562 757.542 159.562C751.656 159.562 746.11 158.573 740.901 156.594C735.745 154.615 731.214 151.75 727.308 148C723.453 144.198 720.406 139.562 718.167 134.094C715.927 128.625 714.808 122.401 714.808 115.422C714.808 108.911 715.927 102.948 718.167 97.5312C720.406 92.0625 723.453 87.375 727.308 83.4688C731.214 79.5625 735.745 76.5417 740.901 74.4062C746.11 72.2188 751.656 71.125 757.542 71.125C760.25 71.125 762.933 71.4635 765.589 72.1406C768.245 72.8177 770.823 73.7552 773.323 74.9531C775.823 76.151 778.193 77.5573 780.433 79.1719C782.724 80.7865 784.86 82.5312 786.839 84.4062L795.12 74.4844H800.276V158ZM778.792 115.422C778.792 112.505 778.219 109.693 777.073 106.984C775.979 104.224 774.469 101.802 772.542 99.7188C770.615 97.5833 768.349 95.8906 765.745 94.6406C763.193 93.3385 760.459 92.6875 757.542 92.6875C754.625 92.6875 751.865 93.1823 749.261 94.1719C746.709 95.1615 744.469 96.6198 742.542 98.5469C740.667 100.474 739.183 102.87 738.089 105.734C736.995 108.547 736.448 111.776 736.448 115.422C736.448 119.068 736.995 122.323 738.089 125.188C739.183 128 740.667 130.37 742.542 132.297C744.469 134.224 746.709 135.682 749.261 136.672C751.865 137.661 754.625 138.156 757.542 138.156C760.459 138.156 763.193 137.531 765.745 136.281C768.349 134.979 770.615 133.286 772.542 131.203C774.469 129.068 775.979 126.646 777.073 123.938C778.219 121.177 778.792 118.339 778.792 115.422ZM858.558 158C853.401 158 848.558 157.036 844.026 155.109C839.495 153.13 835.511 150.448 832.073 147.062C828.688 143.625 826.005 139.641 824.026 135.109C822.099 130.578 821.136 125.734 821.136 120.578V95.7344H810.745V74.4844H821.136V41.0469H842.386V74.4844H874.729V95.7344H842.386V120.578C842.386 122.818 842.802 124.927 843.636 126.906C844.469 128.833 845.615 130.526 847.073 131.984C848.531 133.443 850.25 134.615 852.229 135.5C854.209 136.333 856.318 136.75 858.558 136.75H874.729V158H858.558ZM967.62 115.422C967.62 121.672 966.5 127.505 964.261 132.922C962.021 138.286 958.974 142.948 955.12 146.906C951.266 150.812 946.735 153.911 941.526 156.203C936.37 158.443 930.823 159.562 924.886 159.562C919 159.562 913.453 158.443 908.245 156.203C903.089 153.911 898.558 150.812 894.651 146.906C890.797 142.948 887.75 138.286 885.511 132.922C883.271 127.505 882.151 121.672 882.151 115.422C882.151 109.068 883.271 103.182 885.511 97.7656C887.75 92.349 890.797 87.6875 894.651 83.7812C898.558 79.8229 903.089 76.724 908.245 74.4844C913.453 72.2448 919 71.125 924.886 71.125C930.823 71.125 936.37 72.1927 941.526 74.3281C946.735 76.4115 951.266 79.4062 955.12 83.3125C958.974 87.1667 962.021 91.8281 964.261 97.2969C966.5 102.714 967.62 108.755 967.62 115.422ZM946.136 115.422C946.136 111.984 945.563 108.885 944.417 106.125C943.323 103.312 941.813 100.917 939.886 98.9375C937.959 96.9062 935.693 95.3698 933.089 94.3281C930.537 93.2344 927.802 92.6875 924.886 92.6875C921.969 92.6875 919.209 93.2344 916.604 94.3281C914.052 95.3698 911.813 96.9062 909.886 98.9375C908.011 100.917 906.526 103.312 905.433 106.125C904.339 108.885 903.792 111.984 903.792 115.422C903.792 118.651 904.339 121.646 905.433 124.406C906.526 127.167 908.011 129.562 909.886 131.594C911.813 133.625 914.052 135.24 916.604 136.438C919.209 137.583 921.969 138.156 924.886 138.156C927.802 138.156 930.537 137.609 933.089 136.516C935.693 135.422 937.959 133.885 939.886 131.906C941.813 129.927 943.323 127.531 944.417 124.719C945.563 121.906 946.136 118.807 946.136 115.422Z" fill="#FF4600"/>
<path d="M264.45 194.813L250.305 222.058V237.556H243.294V222.058L229.088 194.813H236.898L246.8 215.785L256.701 194.813H264.45ZM285.942 238.109C282.744 238.109 279.854 237.392 277.271 235.957C274.688 234.481 272.658 232.431 271.182 229.807C269.706 227.142 268.968 224.067 268.968 220.582C268.968 217.138 269.727 214.083 271.244 211.418C272.761 208.753 274.831 206.703 277.455 205.268C280.079 203.833 283.011 203.116 286.25 203.116C289.489 203.116 292.42 203.833 295.044 205.268C297.668 206.703 299.739 208.753 301.256 211.418C302.773 214.083 303.531 217.138 303.531 220.582C303.531 224.026 302.752 227.08 301.194 229.745C299.636 232.41 297.504 234.481 294.798 235.957C292.133 237.392 289.181 238.109 285.942 238.109ZM285.942 232.021C287.746 232.021 289.427 231.59 290.985 230.729C292.584 229.868 293.876 228.577 294.86 226.855C295.844 225.133 296.336 223.042 296.336 220.582C296.336 218.122 295.864 216.051 294.921 214.37C293.978 212.648 292.728 211.357 291.17 210.496C289.612 209.635 287.931 209.204 286.127 209.204C284.323 209.204 282.642 209.635 281.084 210.496C279.567 211.357 278.357 212.648 277.455 214.37C276.553 216.051 276.102 218.122 276.102 220.582C276.102 224.231 277.025 227.06 278.87 229.069C280.756 231.037 283.113 232.021 285.942 232.021ZM342.381 203.669V237.556H335.37V233.558C334.263 234.952 332.807 236.059 331.003 236.879C329.24 237.658 327.354 238.048 325.345 238.048C322.68 238.048 320.282 237.494 318.15 236.387C316.059 235.28 314.398 233.64 313.168 231.467C311.979 229.294 311.385 226.67 311.385 223.595V203.669H318.334V222.55C318.334 225.584 319.093 227.921 320.61 229.561C322.127 231.16 324.197 231.959 326.821 231.959C329.445 231.959 331.516 231.16 333.033 229.561C334.591 227.921 335.37 225.584 335.37 222.55V203.669H342.381ZM359.872 208.589C360.897 206.867 362.25 205.535 363.931 204.592C365.653 203.608 367.683 203.116 370.02 203.116V210.373H368.236C365.489 210.373 363.398 211.07 361.963 212.464C360.569 213.858 359.872 216.277 359.872 219.721V237.556H352.861V203.669H359.872V208.589ZM408.86 194.813C413.411 194.813 417.388 195.695 420.791 197.458C424.235 199.18 426.88 201.681 428.725 204.961C430.611 208.2 431.554 211.992 431.554 216.338C431.554 220.684 430.611 224.456 428.725 227.654C426.88 230.852 424.235 233.312 420.791 235.034C417.388 236.715 413.411 237.556 408.86 237.556H394.9V194.813H408.86ZM408.86 231.836C413.862 231.836 417.696 230.483 420.361 227.777C423.026 225.071 424.358 221.258 424.358 216.338C424.358 211.377 423.026 207.503 420.361 204.715C417.696 201.927 413.862 200.533 408.86 200.533H401.911V231.836H408.86ZM443.299 199.18C442.028 199.18 440.962 198.749 440.101 197.888C439.24 197.027 438.81 195.961 438.81 194.69C438.81 193.419 439.24 192.353 440.101 191.492C440.962 190.631 442.028 190.201 443.299 190.201C444.529 190.201 445.575 190.631 446.436 191.492C447.297 192.353 447.727 193.419 447.727 194.69C447.727 195.961 447.297 197.027 446.436 197.888C445.575 198.749 444.529 199.18 443.299 199.18ZM446.743 203.669V237.556H439.732V203.669H446.743ZM470.831 203.116C473.455 203.116 475.772 203.649 477.781 204.715C479.831 205.74 481.43 207.031 482.578 208.589V203.669H489.65V238.109C489.65 241.225 488.994 243.993 487.682 246.412C486.37 248.872 484.464 250.799 481.963 252.193C479.503 253.587 476.551 254.284 473.107 254.284C468.515 254.284 464.702 253.197 461.668 251.024C458.634 248.892 456.912 245.981 456.502 242.291H463.451C463.984 244.054 465.112 245.469 466.834 246.535C468.597 247.642 470.688 248.195 473.107 248.195C475.936 248.195 478.211 247.334 479.933 245.612C481.696 243.89 482.578 241.389 482.578 238.109V232.451C481.389 234.05 479.769 235.403 477.719 236.51C475.71 237.576 473.414 238.109 470.831 238.109C467.879 238.109 465.173 237.371 462.713 235.895C460.294 234.378 458.367 232.287 456.932 229.622C455.538 226.916 454.841 223.862 454.841 220.459C454.841 217.056 455.538 214.042 456.932 211.418C458.367 208.794 460.294 206.765 462.713 205.33C465.173 203.854 467.879 203.116 470.831 203.116ZM482.578 220.582C482.578 218.245 482.086 216.215 481.102 214.493C480.159 212.771 478.908 211.459 477.35 210.557C475.792 209.655 474.111 209.204 472.307 209.204C470.503 209.204 468.822 209.655 467.264 210.557C465.706 211.418 464.435 212.71 463.451 214.432C462.508 216.113 462.037 218.122 462.037 220.459C462.037 222.796 462.508 224.846 463.451 226.609C464.435 228.372 465.706 229.725 467.264 230.668C468.863 231.57 470.544 232.021 472.307 232.021C474.111 232.021 475.792 231.57 477.35 230.668C478.908 229.766 480.159 228.454 481.102 226.732C482.086 224.969 482.578 222.919 482.578 220.582ZM503.656 199.18C502.385 199.18 501.319 198.749 500.458 197.888C499.597 197.027 499.166 195.961 499.166 194.69C499.166 193.419 499.597 192.353 500.458 191.492C501.319 190.631 502.385 190.201 503.656 190.201C504.886 190.201 505.931 190.631 506.792 191.492C507.653 192.353 508.084 193.419 508.084 194.69C508.084 195.961 507.653 197.027 506.792 197.888C505.931 198.749 504.886 199.18 503.656 199.18ZM507.1 203.669V237.556H500.089V203.669H507.1ZM525.714 209.389V228.146C525.714 229.417 526.001 230.34 526.575 230.914C527.19 231.447 528.215 231.713 529.65 231.713H533.955V237.556H528.42C525.263 237.556 522.844 236.818 521.163 235.342C519.482 233.866 518.642 231.467 518.642 228.146V209.389H514.644V203.669H518.642V195.244H525.714V203.669H533.955V209.389H525.714ZM539.31 220.459C539.31 217.056 540.007 214.042 541.401 211.418C542.836 208.794 544.763 206.765 547.182 205.33C549.642 203.854 552.348 203.116 555.3 203.116C557.965 203.116 560.281 203.649 562.249 204.715C564.258 205.74 565.857 207.031 567.046 208.589V203.669H574.119V237.556H567.046V232.513C565.857 234.112 564.238 235.444 562.188 236.51C560.138 237.576 557.801 238.109 555.177 238.109C552.266 238.109 549.601 237.371 547.182 235.895C544.763 234.378 542.836 232.287 541.401 229.622C540.007 226.916 539.31 223.862 539.31 220.459ZM567.046 220.582C567.046 218.245 566.554 216.215 565.57 214.493C564.627 212.771 563.377 211.459 561.819 210.557C560.261 209.655 558.58 209.204 556.776 209.204C554.972 209.204 553.291 209.655 551.733 210.557C550.175 211.418 548.904 212.71 547.92 214.432C546.977 216.113 546.505 218.122 546.505 220.459C546.505 222.796 546.977 224.846 547.92 226.609C548.904 228.372 550.175 229.725 551.733 230.668C553.332 231.57 555.013 232.021 556.776 232.021C558.58 232.021 560.261 231.57 561.819 230.668C563.377 229.766 564.627 228.454 565.57 226.732C566.554 224.969 567.046 222.919 567.046 220.582ZM591.569 192.046V237.556H584.558V192.046H591.569ZM626.22 200.471V213.017H640.98V218.737H626.22V231.836H642.825V237.556H619.209V194.752H642.825V200.471H626.22ZM650.354 220.582C650.354 217.097 651.051 214.042 652.445 211.418C653.88 208.753 655.848 206.703 658.349 205.268C660.85 203.833 663.72 203.116 666.959 203.116C671.059 203.116 674.441 204.1 677.106 206.068C679.812 207.995 681.637 210.762 682.58 214.37H675.015C674.4 212.689 673.416 211.377 672.063 210.434C670.71 209.491 669.009 209.02 666.959 209.02C664.089 209.02 661.793 210.045 660.071 212.095C658.39 214.104 657.549 216.933 657.549 220.582C657.549 224.231 658.39 227.08 660.071 229.13C661.793 231.18 664.089 232.205 666.959 232.205C671.018 232.205 673.703 230.422 675.015 226.855H682.58C681.596 230.299 679.751 233.046 677.045 235.096C674.339 237.105 670.977 238.109 666.959 238.109C663.72 238.109 660.85 237.392 658.349 235.957C655.848 234.481 653.88 232.431 652.445 229.807C651.051 227.142 650.354 224.067 650.354 220.582ZM705.495 238.109C702.297 238.109 699.406 237.392 696.823 235.957C694.24 234.481 692.211 232.431 690.735 229.807C689.259 227.142 688.521 224.067 688.521 220.582C688.521 217.138 689.279 214.083 690.796 211.418C692.313 208.753 694.384 206.703 697.008 205.268C699.632 203.833 702.563 203.116 705.802 203.116C709.041 203.116 711.973 203.833 714.597 205.268C717.221 206.703 719.291 208.753 720.808 211.418C722.325 214.083 723.084 217.138 723.084 220.582C723.084 224.026 722.305 227.08 720.747 229.745C719.189 232.41 717.057 234.481 714.351 235.957C711.686 237.392 708.734 238.109 705.495 238.109ZM705.495 232.021C707.299 232.021 708.98 231.59 710.538 230.729C712.137 229.868 713.428 228.577 714.412 226.855C715.396 225.133 715.888 223.042 715.888 220.582C715.888 218.122 715.417 216.051 714.474 214.37C713.531 212.648 712.28 211.357 710.722 210.496C709.164 209.635 707.483 209.204 705.679 209.204C703.875 209.204 702.194 209.635 700.636 210.496C699.119 211.357 697.91 212.648 697.008 214.37C696.106 216.051 695.655 218.122 695.655 220.582C695.655 224.231 696.577 227.06 698.422 229.069C700.308 231.037 702.666 232.021 705.495 232.021ZM743.545 238.109C740.88 238.109 738.481 237.638 736.349 236.695C734.258 235.711 732.598 234.399 731.368 232.759C730.138 231.078 729.482 229.212 729.4 227.162H736.657C736.78 228.597 737.456 229.807 738.686 230.791C739.957 231.734 741.536 232.205 743.422 232.205C745.39 232.205 746.907 231.836 747.973 231.098C749.08 230.319 749.633 229.335 749.633 228.146C749.633 226.875 749.018 225.932 747.788 225.317C746.599 224.702 744.693 224.026 742.069 223.288C739.527 222.591 737.456 221.914 735.857 221.258C734.258 220.602 732.864 219.598 731.675 218.245C730.527 216.892 729.953 215.108 729.953 212.894C729.953 211.09 730.486 209.45 731.552 207.974C732.618 206.457 734.135 205.268 736.103 204.407C738.112 203.546 740.408 203.116 742.991 203.116C746.845 203.116 749.941 204.1 752.278 206.068C754.656 207.995 755.927 210.639 756.091 214.001H749.08C748.957 212.484 748.342 211.275 747.235 210.373C746.128 209.471 744.631 209.02 742.745 209.02C740.9 209.02 739.486 209.368 738.502 210.065C737.518 210.762 737.026 211.685 737.026 212.833C737.026 213.735 737.354 214.493 738.01 215.108C738.666 215.723 739.465 216.215 740.408 216.584C741.351 216.912 742.745 217.343 744.59 217.876C747.05 218.532 749.059 219.208 750.617 219.905C752.216 220.561 753.59 221.545 754.738 222.857C755.886 224.169 756.48 225.912 756.521 228.085C756.521 230.012 755.988 231.734 754.922 233.251C753.856 234.768 752.339 235.957 750.371 236.818C748.444 237.679 746.169 238.109 743.545 238.109ZM795.831 203.669L775.044 253.484H767.787L774.675 237.002L761.329 203.669H769.14L778.672 229.499L788.574 203.669H795.831ZM814.652 238.109C811.987 238.109 809.588 237.638 807.456 236.695C805.365 235.711 803.705 234.399 802.475 232.759C801.245 231.078 800.589 229.212 800.507 227.162H807.764C807.887 228.597 808.563 229.807 809.793 230.791C811.064 231.734 812.643 232.205 814.529 232.205C816.497 232.205 818.014 231.836 819.08 231.098C820.187 230.319 820.74 229.335 820.74 228.146C820.74 226.875 820.125 225.932 818.895 225.317C817.706 224.702 815.8 224.026 813.176 223.288C810.634 222.591 808.563 221.914 806.964 221.258C805.365 220.602 803.971 219.598 802.782 218.245C801.634 216.892 801.06 215.108 801.06 212.894C801.06 211.09 801.593 209.45 802.659 207.974C803.725 206.457 805.242 205.268 807.21 204.407C809.219 203.546 811.515 203.116 814.098 203.116C817.952 203.116 821.048 204.1 823.385 206.068C825.763 207.995 827.034 210.639 827.198 214.001H820.187C820.064 212.484 819.449 211.275 818.342 210.373C817.235 209.471 815.738 209.02 813.852 209.02C812.007 209.02 810.593 209.368 809.609 210.065C808.625 210.762 808.133 211.685 808.133 212.833C808.133 213.735 808.461 214.493 809.117 215.108C809.773 215.723 810.572 216.215 811.515 216.584C812.458 216.912 813.852 217.343 815.697 217.876C818.157 218.532 820.166 219.208 821.724 219.905C823.323 220.561 824.697 221.545 825.845 222.857C826.993 224.169 827.587 225.912 827.628 228.085C827.628 230.012 827.095 231.734 826.029 233.251C824.963 234.768 823.446 235.957 821.478 236.818C819.551 237.679 817.276 238.109 814.652 238.109ZM844.613 209.389V228.146C844.613 229.417 844.9 230.34 845.474 230.914C846.089 231.447 847.114 231.713 848.549 231.713H852.854V237.556H847.319C844.162 237.556 841.743 236.818 840.062 235.342C838.381 233.866 837.541 231.467 837.541 228.146V209.389H833.543V203.669H837.541V195.244H844.613V203.669H852.854V209.389H844.613ZM891.604 219.782C891.604 221.053 891.522 222.201 891.358 223.226H865.466C865.671 225.932 866.676 228.105 868.48 229.745C870.284 231.385 872.498 232.205 875.122 232.205C878.894 232.205 881.559 230.627 883.117 227.47H890.681C889.656 230.586 887.791 233.148 885.085 235.157C882.42 237.125 879.099 238.109 875.122 238.109C871.883 238.109 868.972 237.392 866.389 235.957C863.847 234.481 861.838 232.431 860.362 229.807C858.927 227.142 858.209 224.067 858.209 220.582C858.209 217.097 858.906 214.042 860.3 211.418C861.735 208.753 863.724 206.703 866.266 205.268C868.849 203.833 871.801 203.116 875.122 203.116C878.32 203.116 881.169 203.813 883.67 205.207C886.171 206.601 888.119 208.569 889.513 211.111C890.907 213.612 891.604 216.502 891.604 219.782ZM884.285 217.568C884.244 214.985 883.322 212.915 881.518 211.357C879.714 209.799 877.479 209.02 874.814 209.02C872.395 209.02 870.325 209.799 868.603 211.357C866.881 212.874 865.856 214.944 865.528 217.568H884.285ZM940.754 203.116C943.419 203.116 945.797 203.669 947.888 204.776C950.02 205.883 951.68 207.523 952.869 209.696C954.099 211.869 954.714 214.493 954.714 217.568V237.556H947.765V218.614C947.765 215.58 947.006 213.263 945.489 211.664C943.972 210.024 941.902 209.204 939.278 209.204C936.654 209.204 934.563 210.024 933.005 211.664C931.488 213.263 930.729 215.58 930.729 218.614V237.556H923.78V218.614C923.78 215.58 923.021 213.263 921.504 211.664C919.987 210.024 917.917 209.204 915.293 209.204C912.669 209.204 910.578 210.024 909.02 211.664C907.503 213.263 906.744 215.58 906.744 218.614V237.556H899.733V203.669H906.744V207.544C907.892 206.15 909.348 205.063 911.111 204.284C912.874 203.505 914.76 203.116 916.769 203.116C919.475 203.116 921.894 203.69 924.026 204.838C926.158 205.986 927.798 207.646 928.946 209.819C929.971 207.769 931.57 206.15 933.743 204.961C935.916 203.731 938.253 203.116 940.754 203.116Z" fill="#111111"/>
<path fill-rule="evenodd" clip-rule="evenodd" d="M83.8498 19.9478C37.6145 19.9478 0 57.4777 0 103.604C0 108.177 0.807327 113.381 2.25919 119.041C4.49418 117.845 6.72119 116.667 8.93323 115.497C18.3984 110.49 27.5895 105.628 35.9583 100.135C43.1092 95.442 45.447 89.3126 46.9736 83.0247C47.2252 81.9885 47.4408 80.9562 47.6568 79.9219L47.6568 79.9218C49.1701 72.6761 50.7038 65.3329 64.7657 55.8707C69.3016 52.8558 74.334 50.6608 79.6327 49.3862C84.7649 48.0651 90.1814 48.3623 95.1374 50.237C100.093 52.1118 104.346 55.4719 107.31 59.8556C110.273 64.2393 111.804 69.4312 111.689 74.7176C111.575 80.0041 109.822 85.1254 106.672 89.3777C103.502 93.8012 99.5772 97.6338 95.0759 100.7C81.0139 110.162 73.6146 108.83 66.3134 107.515L66.3132 107.515C65.2711 107.328 64.231 107.14 63.1738 106.985C56.7579 106.041 50.1854 105.908 43.1444 110.764C34.9043 116.447 26.9429 123.127 18.7441 130.007L18.7439 130.007C15.4815 132.744 12.1815 135.513 8.8114 138.263C28.94 187.463 76.764 252.668 79.3177 256.131L82.341 260.236C82.6945 260.718 83.2575 261 83.8498 261C84.4513 261 85.0106 260.718 85.3678 260.236L88.3892 256.131C91.064 252.506 143.343 181.225 161.532 131.469C152.97 135.264 144.673 139.037 136.982 143.349C133.909 145.057 131.236 147.399 129.142 150.219C127.048 153.038 125.582 156.27 124.842 159.698C121.868 170.492 115.228 175.912 96.2072 184.535L77.9654 192.805C77.3039 193.105 76.5544 193.148 75.863 192.928C75.1716 192.707 74.5876 192.238 74.2249 191.611L74.152 191.485C73.9603 191.154 73.8359 190.788 73.7861 190.409C73.7363 190.029 73.7619 189.644 73.8615 189.274C73.9612 188.904 74.1329 188.558 74.3669 188.254C74.6008 187.95 74.8925 187.695 75.2251 187.503L106.376 169.562C107.113 169.229 107.692 168.623 107.988 167.873C108.285 167.122 108.275 166.286 107.962 165.543C107.473 164.901 106.752 164.475 105.953 164.355C105.153 164.236 104.337 164.433 103.68 164.904L72.5295 182.846C71.8578 183.23 71.061 183.334 70.3136 183.133C69.5663 182.933 68.9296 182.446 68.543 181.778C68.1564 181.11 68.0516 180.316 68.2515 179.57C68.4514 178.825 68.9397 178.188 69.6093 177.8L100.76 159.858C101.498 159.526 102.076 158.92 102.372 158.169C102.669 157.418 102.659 156.582 102.346 155.839C101.858 155.197 101.137 154.771 100.337 154.652C99.5371 154.532 98.7216 154.729 98.0645 155.2L66.9138 173.142C66.2421 173.527 65.4452 173.63 64.6979 173.43C63.9506 173.23 63.3138 172.742 62.9273 172.074C62.5407 171.406 62.4359 170.613 62.6358 169.867C62.8357 169.121 63.324 168.484 63.9936 168.096L95.1443 150.155C95.8818 149.822 96.4605 149.216 96.7568 148.466C97.053 147.715 97.0435 146.879 96.7303 146.136C96.242 145.494 95.521 145.068 94.7211 144.948C93.9213 144.829 93.1059 145.026 92.4487 145.497L61.298 163.439C60.6262 163.826 59.828 163.931 59.0791 163.731C58.3302 163.532 57.692 163.044 57.3047 162.375L57.2319 162.249C56.8692 161.622 56.7537 160.883 56.9079 160.175C57.062 159.468 57.4749 158.842 58.066 158.42L74.3661 146.795C91.3616 134.674 99.3868 131.647 110.244 134.475C113.59 135.549 117.129 135.898 120.623 135.499C124.118 135.1 127.487 133.962 130.507 132.161C139.117 127.068 147.514 120.955 156.162 114.66C159.919 111.925 163.722 109.156 167.611 106.421C167.675 105.458 167.707 104.518 167.707 103.604C167.707 57.4777 130.086 19.9478 83.8498 19.9478Z" fill="#FF4600"/>
</svg>
