<svg xmlns="http://www.w3.org/2000/svg" width="293" height="50" viewBox="0 0 293 50.07"  shape-rendering="geometricPrecision" image-rendering="optimizeQuality" fill-rule="evenodd" xmlns:v="https://vecta.io/nano"><path d="M.9 47.38h73.8c.5 0 .9.4.9.89v.9c0 .5-.4.9-.9.9H.9c-.5 0-.9-.4-.9-.9v-.9c0-.49.4-.89.9-.89zm84.93-7.99h-5.35v-20.1h11.88v4.36h-6.53v3.83h6.02v4.37h-6.02v7.54zm26.63-10.07c0 3.38-.82 5.95-2.48 7.71s-4.09 2.64-7.29 2.64c-3.16 0-5.57-.88-7.26-2.65-1.68-1.77-2.52-4.35-2.52-7.73 0-3.34.84-5.9 2.51-7.67 1.67-1.76 4.1-2.64 7.3-2.64s5.62.87 7.27 2.63c1.65 1.75 2.47 4.32 2.47 7.71zm-13.83-.01c0 3.89 1.35 5.83 4.06 5.83 1.37 0 2.4-.47 3.06-1.42.66-.94 1-2.41 1-4.41 0-2.01-.34-3.49-1.02-4.45-.67-.96-1.68-1.43-3.01-1.43-2.73 0-4.09 1.96-4.09 5.88zm34.26.01c0 3.38-.82 5.95-2.48 7.71s-4.09 2.64-7.29 2.64c-3.16 0-5.57-.88-7.26-2.65-1.68-1.77-2.52-4.35-2.52-7.73 0-3.34.84-5.9 2.51-7.67 1.67-1.76 4.1-2.64 7.3-2.64s5.62.87 7.27 2.63c1.65 1.75 2.47 4.32 2.47 7.71zm-13.83-.01c0 3.89 1.35 5.83 4.06 5.83 1.37 0 2.4-.47 3.06-1.42.66-.94 1-2.41 1-4.41 0-2.01-.34-3.49-1.02-4.45-.67-.96-1.68-1.43-3.01-1.43-2.73 0-4.09 1.96-4.09 5.88zm32.52-.4c0 3.36-.93 5.94-2.77 7.76-1.85 1.82-4.45 2.72-7.79 2.72h-6.51v-20.1h6.96c3.23 0 5.72.82 7.47 2.47 1.76 1.65 2.64 4.04 2.64 7.15zm-5.64.2c0-1.84-.37-3.21-1.09-4.1-.73-.88-1.84-1.33-3.33-1.33h-1.58v11.26h1.21c1.66 0 2.87-.48 3.64-1.43.76-.96 1.15-2.42 1.15-4.4zm23.31 10.28l-4.12-14.48h-.12l.29 5.75v8.73h-4.82v-20.1h7.24l4.19 14.27h.12l4.11-14.27h7.24v20.1h-4.99v-8.81l.02-1.53.19-4.11h-.13l-4.06 14.45h-5.16zm28.78 0l-.99-3.77h-6.53l-1.01 3.77h-5.97l6.55-20.19h7.25l6.64 20.19h-5.94zm-2.12-8.22l-.86-3.3-.74-2.85-.56-2.51-.49 2.32-1.62 6.34h4.27zm27.37 8.22h-7.13l-7.34-14.16h-.12l.26 5.1v9.06h-4.82v-20.1h7.1l7.32 13.97h.08l-.19-4.88v-9.09h4.84v20.1zm14.66 0l-.98-3.77h-6.54l-1.01 3.77h-5.97L230 19.2h7.24l6.64 20.19h-5.94zm-2.11-8.22l-.87-3.3-.73-2.85-.57-2.51-.49 2.32-1.62 6.34h4.28zm15.72-3.55h8.68v10.84c-2.36.81-4.95 1.21-7.77 1.21-3.1 0-5.49-.89-7.18-2.69s-2.54-4.36-2.54-7.69c0-3.24.93-5.77 2.78-7.58 1.85-1.8 4.44-2.71 7.78-2.71 1.26 0 2.46.12 3.58.36s2.1.54 2.93.91l-1.72 4.26c-1.44-.72-3.03-1.08-4.76-1.08-1.59 0-2.81.52-3.68 1.55s-1.3 2.51-1.3 4.42c0 1.88.39 3.31 1.17 4.3.79.98 1.92 1.48 3.39 1.48.81 0 1.55-.08 2.23-.24v-3.14h-3.59v-4.2zm22.71 11.77h-11.94v-20.1h11.94v4.36h-6.51v3.15h6.03v4.37h-6.03v3.8h6.51v4.42zm6.93-7.32v7.32h-5.43v-20.1h6.59c5.47 0 8.2 1.98 8.2 5.93 0 2.33-1.14 4.13-3.41 5.41l5.86 8.76h-6.16l-4.27-7.32h-1.38zm0-4.08h1.02c1.9 0 2.86-.84 2.86-2.52 0-1.38-.94-2.07-2.8-2.07h-1.08v4.59zM31.88 6.03c0-4.18 3.03-6.03 6.07-6.03 3.03 0 6.07 1.85 6.07 6.03-1.43-.43-5.06-.69-6.3-.69-1.38.01-4.3.22-5.84.69zm41.86 36.66c0 1.53-1.23 2.76-2.76 2.76H4.92c-1.53 0-2.76-1.23-2.76-2.76 0-19.24 11.25-32.5 29.72-35.31 4.43-.6 7.73-.58 12.14 0 18.47 2.81 29.72 16.07 29.72 35.31zm-34.51-3.3H32.8l-1.92-8.77c-.09-.37-.24-1.1-.43-2.19-.2-1.09-.35-2-.44-2.74-.07.6-.19 1.34-.35 2.23l-.49 2.44-2 9.03h-6.43l-4.98-20.12H21l2.19 10.08c.49 2.24.84 4.01 1.02 5.33.12-.93.33-2.21.64-3.81a62 62 0 0 1 .86-3.99l1.77-7.61h5.04l1.71 7.61c.3 1.22.6 2.63.9 4.22.3 1.6.5 2.79.6 3.58.13-1.02.45-2.78.98-5.3l2.23-10.11h5.24l-4.95 20.12zm20.91-13.73c0 2.25-.66 3.99-1.99 5.21-1.33 1.23-3.21 1.84-5.65 1.84h-1.53v6.68h-5.43V19.27h6.96c2.54 0 4.45.55 5.73 1.66 1.27 1.11 1.91 2.69 1.91 4.73zm-9.17 2.62h.99c.82 0 1.47-.23 1.95-.68.49-.46.73-1.1.73-1.9 0-1.36-.76-2.04-2.26-2.04h-1.41v4.62z" fill="#ff4600"/></svg>