<svg width="256" height="256" viewBox="0 0 256 256" fill="none" xmlns="http://www.w3.org/2000/svg">
<path d="M0 48C0 21.4903 21.4903 0 48 0H208C234.51 0 256 21.4903 256 48V208C256 234.51 234.51 256 208 256H48C21.4903 256 0 234.51 0 208V48Z" fill="white"/>
<path fill-rule="evenodd" clip-rule="evenodd" d="M208 16H48C30.3269 16 16 30.3269 16 48V208C16 225.673 30.3269 240 48 240H208C225.673 240 240 225.673 240 208V48C240 30.3269 225.673 16 208 16ZM48 0C21.4903 0 0 21.4903 0 48V208C0 234.51 21.4903 256 48 256H208C234.51 256 256 234.51 256 208V48C256 21.4903 234.51 0 208 0H48Z" fill="#3AB757"/>
<circle cx="128" cy="128" r="64" fill="#3AB757"/>
</svg>
