<svg width="256" height="256" viewBox="0 0 256 256" fill="none" xmlns="http://www.w3.org/2000/svg">
<path d="M0 48C0 21.4903 21.4903 0 48 0H208C234.51 0 256 21.4903 256 48V208C256 234.51 234.51 256 208 256H48C21.4903 256 0 234.51 0 208V48Z" fill="white"/>
<path fill-rule="evenodd" clip-rule="evenodd" d="M208 16H48C30.3269 16 16 30.3269 16 48V208C16 225.673 30.3269 240 48 240H208C225.673 240 240 225.673 240 208V48C240 30.3269 225.673 16 208 16ZM48 0C21.4903 0 0 21.4903 0 48V208C0 234.51 21.4903 256 48 256H208C234.51 256 256 234.51 256 208V48C256 21.4903 234.51 0 208 0H48Z" fill="#3AB757"/>
<path d="M74.8182 48C74.8182 48 48 73.7273 48 103C48 132.273 75.5 142.545 75.5 142.545C65.2164 115.505 66.7236 100.875 72.0909 82.7727C72.0909 117.035 82.3182 137.091 82.3182 137.091C82.3182 137.091 102.762 117.933 97.7727 89.5909C94.2018 69.2564 74.8182 48 74.8182 48ZM135.273 113.455C87.8109 113.455 84.5909 160.727 84.5909 160.727C84.5909 160.727 98.1091 146.862 110.727 142.091C141.782 130.353 164.364 142.545 164.364 142.545C164.364 142.545 138.931 141.184 124.364 146.864C96.6109 157.678 78.1618 186.244 70.9545 197.545C68.9982 200.622 69.7909 204.776 72.7727 206.864C75.6891 208.958 80.9473 208.015 82.7727 204.364C86.6636 196.582 95.2164 180.442 97.3182 177.773C97.3182 177.773 112.936 186.182 141.409 186.182C180.013 186.182 208 142.545 208 142.545C208 142.545 176.582 113.455 135.273 113.455Z" fill="#3AB757"/>
</svg>
